<svg width="723" height="146" viewBox="0 0 723 146" fill="none" xmlns="http://www.w3.org/2000/svg">
<path d="M54.048 57.872L53.2357 59.6996L54.048 57.872ZM64.704 66.704L63.0271 67.794V67.794L64.704 66.704ZM64.704 93.584L63.0271 92.494L64.704 93.584ZM54.048 102.416L53.2357 100.588L54.048 102.416ZM28.128 105.488V103.488H26.128V105.488H28.128ZM28.128 122V124H30.128V122H28.128ZM5.472 122H3.472V124H5.472V122ZM5.472 54.8V52.8H3.472V54.8H5.472ZM43.296 86L44.613 87.5051L44.6304 87.4899L44.6475 87.4743L43.296 86ZM43.296 74.384L41.9446 75.8583L41.9616 75.8739L41.979 75.8892L43.296 74.384ZM28.128 72.272V70.272H26.128V72.272H28.128ZM28.128 88.016H26.128V90.016H28.128V88.016ZM37.824 56.8C43.8152 56.8 48.9354 57.7883 53.2357 59.6996L54.8603 56.0444C49.9446 53.8596 44.2488 52.8 37.824 52.8V56.8ZM53.2357 59.6996C57.5273 61.607 60.763 64.3107 63.0271 67.794L66.3809 65.614C63.653 61.4173 59.7847 58.233 54.8603 56.0444L53.2357 59.6996ZM63.0271 67.794C65.2879 71.2721 66.448 75.3638 66.448 80.144H70.448C70.448 74.6842 69.1121 69.8159 66.3809 65.614L63.0271 67.794ZM66.448 80.144C66.448 84.9242 65.2879 89.0159 63.0271 92.494L66.3809 94.674C69.1121 90.4721 70.448 85.6038 70.448 80.144H66.448ZM63.0271 92.494C60.763 95.9773 57.5273 98.681 53.2357 100.588L54.8603 104.244C59.7847 102.055 63.653 98.8707 66.3809 94.674L63.0271 92.494ZM53.2357 100.588C48.9354 102.5 43.8152 103.488 37.824 103.488V107.488C44.2488 107.488 49.9446 106.428 54.8603 104.244L53.2357 100.588ZM37.824 103.488H28.128V107.488H37.824V103.488ZM26.128 105.488V122H30.128V105.488H26.128ZM28.128 120H5.472V124H28.128V120ZM7.472 122V54.8H3.472V122H7.472ZM5.472 56.8H37.824V52.8H5.472V56.8ZM36.384 90.016C39.7036 90.016 42.5668 89.2956 44.613 87.5051L41.979 84.4948C40.9532 85.3924 39.2084 86.016 36.384 86.016V90.016ZM44.6475 87.4743C46.6779 85.6131 47.6 83.0801 47.6 80.144H43.6C43.6 82.1999 42.9861 83.5709 41.9446 84.5257L44.6475 87.4743ZM47.6 80.144C47.6 77.2111 46.6782 74.6859 44.613 72.8788L41.979 75.8892C42.9858 76.7701 43.6 78.0849 43.6 80.144H47.6ZM44.6475 72.9097C42.6008 71.0336 39.7233 70.272 36.384 70.272V74.272C39.1887 74.272 40.9192 74.9184 41.9446 75.8583L44.6475 72.9097ZM36.384 70.272H28.128V74.272H36.384V70.272ZM26.128 72.272V88.016H30.128V72.272H26.128ZM28.128 90.016H36.384V86.016H28.128V90.016ZM131.75 104.912H133.75V102.912H131.75V104.912ZM131.75 122V124H133.75V122H131.75ZM75.8783 122H73.8783V124H75.8783V122ZM75.8783 54.8V52.8H73.8783V54.8H75.8783ZM130.502 54.8H132.502V52.8H130.502V54.8ZM130.502 71.888V73.888H132.502V71.888H130.502ZM98.1503 71.888V69.888H96.1503V71.888H98.1503ZM98.1503 79.76H96.1503V81.76H98.1503V79.76ZM126.566 79.76H128.566V77.76H126.566V79.76ZM126.566 96.08V98.08H128.566V96.08H126.566ZM98.1503 96.08V94.08H96.1503V96.08H98.1503ZM98.1503 104.912H96.1503V106.912H98.1503V104.912ZM129.75 104.912V122H133.75V104.912H129.75ZM131.75 120H75.8783V124H131.75V120ZM77.8783 122V54.8H73.8783V122H77.8783ZM75.8783 56.8H130.502V52.8H75.8783V56.8ZM128.502 54.8V71.888H132.502V54.8H128.502ZM130.502 69.888H98.1503V73.888H130.502V69.888ZM96.1503 71.888V79.76H100.15V71.888H96.1503ZM98.1503 81.76H126.566V77.76H98.1503V81.76ZM124.566 79.76V96.08H128.566V79.76H124.566ZM126.566 94.08H98.1503V98.08H126.566V94.08ZM96.1503 96.08V104.912H100.15V96.08H96.1503ZM98.1503 106.912H131.75V102.912H98.1503V106.912ZM169.272 105.104L170.929 103.984L170.334 103.104H169.272V105.104ZM163.128 105.104V103.104H161.128V105.104H163.128ZM163.128 122V124H165.128V122H163.128ZM140.472 122H138.472V124H140.472V122ZM140.472 54.8V52.8H138.472V54.8H140.472ZM189.048 57.872L188.236 59.6996H188.236L189.048 57.872ZM199.704 66.704L198.027 67.794V67.794L199.704 66.704ZM200.184 92.72L198.474 91.682V91.682L200.184 92.72ZM190.776 101.264L189.859 99.4864L187.852 100.522L189.123 102.389L190.776 101.264ZM204.888 122V124H208.668L206.541 120.875L204.888 122ZM180.696 122L179.039 123.12L179.634 124H180.696V122ZM178.296 74.384L176.945 75.8583L176.962 75.8739L176.979 75.8892L178.296 74.384ZM163.128 72.272V70.272H161.128V72.272H163.128ZM163.128 88.016H161.128V90.016H163.128V88.016ZM178.296 86L179.613 87.5051L179.63 87.4899L179.647 87.4743L178.296 86ZM169.272 103.104H163.128V107.104H169.272V103.104ZM161.128 105.104V122H165.128V105.104H161.128ZM163.128 120H140.472V124H163.128V120ZM142.472 122V54.8H138.472V122H142.472ZM140.472 56.8H172.824V52.8H140.472V56.8ZM172.824 56.8C178.815 56.8 183.935 57.7883 188.236 59.6996L189.86 56.0444C184.945 53.8596 179.249 52.8 172.824 52.8V56.8ZM188.236 59.6996C192.527 61.607 195.763 64.3107 198.027 67.794L201.381 65.614C198.653 61.4173 194.785 58.233 189.86 56.0444L188.236 59.6996ZM198.027 67.794C200.288 71.2721 201.448 75.3638 201.448 80.144H205.448C205.448 74.6842 204.112 69.8159 201.381 65.614L198.027 67.794ZM201.448 80.144C201.448 84.632 200.434 88.4541 198.474 91.682L201.894 93.758C204.286 89.8179 205.448 85.256 205.448 80.144H201.448ZM198.474 91.682C196.508 94.9204 193.662 97.5259 189.859 99.4864L191.693 103.042C196.082 100.778 199.508 97.6876 201.894 93.758L198.474 91.682ZM189.123 102.389L203.235 123.125L206.541 120.875L192.429 100.139L189.123 102.389ZM204.888 120H180.696V124H204.888V120ZM182.353 120.88L170.929 103.984L167.615 106.224L179.039 123.12L182.353 120.88ZM182.6 80.144C182.6 77.2111 181.678 74.6859 179.613 72.8788L176.979 75.8892C177.986 76.7701 178.6 78.0849 178.6 80.144H182.6ZM179.647 72.9097C177.601 71.0336 174.723 70.272 171.384 70.272V74.272C174.189 74.272 175.919 74.9184 176.945 75.8583L179.647 72.9097ZM171.384 70.272H163.128V74.272H171.384V70.272ZM161.128 72.272V88.016H165.128V72.272H161.128ZM163.128 90.016H171.384V86.016H163.128V90.016ZM171.384 90.016C174.704 90.016 177.567 89.2956 179.613 87.5051L176.979 84.4948C175.953 85.3924 174.208 86.016 171.384 86.016V90.016ZM179.647 87.4743C181.678 85.6131 182.6 83.0801 182.6 80.144H178.6C178.6 82.1999 177.986 83.5709 176.945 84.5257L179.647 87.4743ZM227.747 119.024L228.673 117.251L227.747 119.024ZM214.211 106.544L212.502 107.582L212.507 107.591L214.211 106.544ZM214.211 70.352L215.915 71.3991L215.921 71.39L214.211 70.352ZM266.723 57.776L267.649 56.0032L266.723 57.776ZM280.259 70.352L278.55 71.39L278.555 71.399L280.259 70.352ZM280.259 106.544L281.963 107.591L281.969 107.582L280.259 106.544ZM266.723 119.024L267.649 120.797L266.723 119.024ZM254.819 103.184L255.848 104.899L255.855 104.895L255.862 104.891L254.819 103.184ZM260.291 97.328L262.052 98.2762L262.057 98.267L262.062 98.2577L260.291 97.328ZM260.291 79.568L258.52 80.4977L258.525 80.507L258.53 80.5162L260.291 79.568ZM254.819 73.712L253.755 75.4053L253.783 75.4229L253.812 75.4396L254.819 73.712ZM239.555 73.712L240.584 75.427L240.591 75.4228L240.598 75.4186L239.555 73.712ZM234.179 79.568L235.94 80.5162L235.945 80.507L235.95 80.4977L234.179 79.568ZM234.179 97.328L232.408 98.2577L232.413 98.267L232.418 98.2762L234.179 97.328ZM239.555 103.184L238.491 104.877L238.519 104.895L238.548 104.912L239.555 103.184ZM247.235 121.536C240.289 121.536 234.116 120.094 228.673 117.251L226.821 120.797C232.898 123.97 239.718 125.536 247.235 125.536V121.536ZM228.673 117.251C223.219 114.403 218.982 110.488 215.915 105.497L212.507 107.591C215.969 113.224 220.755 117.629 226.821 120.797L228.673 117.251ZM215.921 105.506C212.86 100.464 211.315 94.78 211.315 88.4H207.315C207.315 95.46 209.035 101.872 212.502 107.582L215.921 105.506ZM211.315 88.4C211.315 82.0198 212.86 76.3716 215.915 71.399L212.507 69.3049C209.035 74.9564 207.315 81.3402 207.315 88.4H211.315ZM215.921 71.39C218.989 66.3365 223.225 62.3938 228.673 59.5488L226.821 56.0032C220.749 59.1742 215.962 63.6155 212.502 69.314L215.921 71.39ZM228.673 59.5488C234.116 56.7063 240.289 55.264 247.235 55.264V51.264C239.718 51.264 232.898 52.8297 226.821 56.0032L228.673 59.5488ZM247.235 55.264C254.182 55.264 260.354 56.7063 265.797 59.5488L267.649 56.0032C261.572 52.8297 254.753 51.264 247.235 51.264V55.264ZM265.797 59.5488C271.245 62.3938 275.482 66.3365 278.55 71.39L281.969 69.314C278.509 63.6155 273.721 59.1742 267.649 56.0032L265.797 59.5488ZM278.555 71.399C281.611 76.3716 283.155 82.0198 283.155 88.4H287.155C287.155 81.3402 285.436 74.9564 281.963 69.3049L278.555 71.399ZM283.155 88.4C283.155 94.78 281.611 100.464 278.55 105.506L281.969 107.582C285.436 101.872 287.155 95.46 287.155 88.4H283.155ZM278.555 105.497C275.489 110.488 271.251 114.403 265.797 117.251L267.649 120.797C273.715 117.629 278.502 113.224 281.963 107.591L278.555 105.497ZM265.797 117.251C260.354 120.094 254.182 121.536 247.235 121.536V125.536C254.753 125.536 261.572 123.97 267.649 120.797L265.797 117.251ZM247.235 107.2C250.384 107.2 253.273 106.444 255.848 104.899L253.79 101.469C251.885 102.612 249.718 103.2 247.235 103.2V107.2ZM255.862 104.891C258.484 103.288 260.549 101.068 262.052 98.2762L258.53 96.3798C257.346 98.5801 255.763 100.264 253.776 101.477L255.862 104.891ZM262.062 98.2577C263.581 95.3651 264.307 92.0598 264.307 88.4H260.307C260.307 91.5242 259.69 94.1709 258.52 96.3983L262.062 98.2577ZM264.307 88.4C264.307 84.7418 263.581 81.4594 262.052 78.6198L258.53 80.5162C259.689 82.6686 260.307 85.2742 260.307 88.4H264.307ZM262.062 78.6383C260.559 75.775 258.482 73.5334 255.827 71.9844L253.812 75.4396C255.764 76.5786 257.336 78.241 258.52 80.4977L262.062 78.6383ZM255.884 72.0187C253.304 70.3973 250.403 69.6 247.235 69.6V73.6C249.7 73.6 251.855 74.2107 253.755 75.4053L255.884 72.0187ZM247.235 69.6C244.068 69.6 241.144 70.3971 238.512 72.0054L240.598 75.4186C242.574 74.2109 244.771 73.6 247.235 73.6V69.6ZM238.526 71.997C235.939 73.5495 233.904 75.7892 232.408 78.6383L235.95 80.4977C237.142 78.2268 238.692 76.5625 240.584 75.427L238.526 71.997ZM232.418 78.6198C230.889 81.4594 230.163 84.7418 230.163 88.4H234.163C234.163 85.2742 234.781 82.6686 235.94 80.5162L232.418 78.6198ZM230.163 88.4C230.163 92.0598 230.89 95.3651 232.408 98.2577L235.95 96.3983C234.781 94.171 234.163 91.5242 234.163 88.4H230.163ZM232.418 98.2762C233.914 101.054 235.937 103.272 238.491 104.877L240.62 101.491C238.693 100.28 237.132 98.5939 235.94 96.3798L232.418 98.2762ZM238.548 104.912C241.175 106.444 244.086 107.2 247.235 107.2V103.2C244.753 103.2 242.544 102.612 240.563 101.456L238.548 104.912ZM336.751 72.368H338.751V70.368H336.751V72.368ZM317.072 72.368H315.072V74.368H317.072V72.368ZM317.072 54.8V52.8H315.072V54.8H317.072ZM379.087 54.8H381.087V52.8H379.087V54.8ZM379.087 72.368V74.368H381.087V72.368H379.087ZM359.408 72.368V70.368H357.408V72.368H359.408ZM359.408 122V124H361.408V122H359.408ZM336.751 122H334.751V124H336.751V122ZM336.751 70.368H317.072V74.368H336.751V70.368ZM319.072 72.368V54.8H315.072V72.368H319.072ZM317.072 56.8H379.087V52.8H317.072V56.8ZM377.087 54.8V72.368H381.087V54.8H377.087ZM379.087 70.368H359.408V74.368H379.087V70.368ZM357.408 72.368V122H361.408V72.368H357.408ZM359.408 120H336.751V124H359.408V120ZM338.751 122V72.368H334.751V122H338.751ZM413.772 105.104L415.429 103.984L414.834 103.104H413.772V105.104ZM407.628 105.104V103.104H405.628V105.104H407.628ZM407.628 122V124H409.628V122H407.628ZM384.972 122H382.972V124H384.972V122ZM384.972 54.8V52.8H382.972V54.8H384.972ZM433.548 57.872L432.736 59.6996L433.548 57.872ZM444.204 66.704L442.527 67.794L442.527 67.794L444.204 66.704ZM444.684 92.72L442.974 91.682V91.682L444.684 92.72ZM435.276 101.264L434.359 99.4864L432.352 100.522L433.623 102.389L435.276 101.264ZM449.388 122V124H453.168L451.041 120.875L449.388 122ZM425.196 122L423.539 123.12L424.134 124H425.196V122ZM422.796 74.384L421.445 75.8583L421.462 75.8739L421.479 75.8892L422.796 74.384ZM407.628 72.272V70.272H405.628V72.272H407.628ZM407.628 88.016H405.628V90.016H407.628V88.016ZM422.796 86L424.113 87.5051L424.13 87.4899L424.147 87.4743L422.796 86ZM413.772 103.104H407.628V107.104H413.772V103.104ZM405.628 105.104V122H409.628V105.104H405.628ZM407.628 120H384.972V124H407.628V120ZM386.972 122V54.8H382.972V122H386.972ZM384.972 56.8H417.324V52.8H384.972V56.8ZM417.324 56.8C423.315 56.8 428.435 57.7883 432.736 59.6996L434.36 56.0444C429.445 53.8596 423.749 52.8 417.324 52.8V56.8ZM432.736 59.6996C437.027 61.607 440.263 64.3107 442.527 67.794L445.881 65.614C443.153 61.4173 439.285 58.233 434.36 56.0444L432.736 59.6996ZM442.527 67.794C444.788 71.2721 445.948 75.3638 445.948 80.144H449.948C449.948 74.6842 448.612 69.8159 445.881 65.614L442.527 67.794ZM445.948 80.144C445.948 84.632 444.934 88.4541 442.974 91.682L446.394 93.758C448.786 89.8179 449.948 85.256 449.948 80.144H445.948ZM442.974 91.682C441.008 94.9204 438.162 97.5259 434.359 99.4864L436.193 103.042C440.582 100.778 444.008 97.6876 446.394 93.758L442.974 91.682ZM433.623 102.389L447.735 123.125L451.041 120.875L436.929 100.139L433.623 102.389ZM449.388 120H425.196V124H449.388V120ZM426.853 120.88L415.429 103.984L412.115 106.224L423.539 123.12L426.853 120.88ZM427.1 80.144C427.1 77.2111 426.178 74.6859 424.113 72.8788L421.479 75.8892C422.486 76.7701 423.1 78.0849 423.1 80.144H427.1ZM424.147 72.9097C422.101 71.0336 419.223 70.272 415.884 70.272V74.272C418.689 74.272 420.419 74.9184 421.445 75.8583L424.147 72.9097ZM415.884 70.272H407.628V74.272H415.884V70.272ZM405.628 72.272V88.016H409.628V72.272H405.628ZM407.628 90.016H415.884V86.016H407.628V90.016ZM415.884 90.016C419.204 90.016 422.067 89.2956 424.113 87.5051L421.479 84.4948C420.453 85.3924 418.708 86.016 415.884 86.016V90.016ZM424.147 87.4743C426.178 85.6131 427.1 83.0801 427.1 80.144H423.1C423.1 82.1999 422.486 83.5709 421.445 84.5257L424.147 87.4743ZM502.295 110.288L504.162 109.569L503.668 108.288H502.295V110.288ZM476.759 110.288V108.288H475.386L474.893 109.569L476.759 110.288ZM472.247 122V124H473.62L474.114 122.719L472.247 122ZM449.207 122L447.375 121.199L446.15 124H449.207V122ZM478.583 54.8V52.8H477.275L476.751 53.9989L478.583 54.8ZM500.855 54.8L502.688 53.9989L502.164 52.8H500.855V54.8ZM530.231 122V124H533.288L532.064 121.199L530.231 122ZM506.807 122L504.941 122.719L505.434 124H506.807V122ZM496.055 93.968V95.968H498.972L497.921 93.2472L496.055 93.968ZM489.527 77.072L491.393 76.3512L489.527 71.5226L487.662 76.3512L489.527 77.072ZM482.999 93.968L481.134 93.2472L480.082 95.968H482.999V93.968ZM502.295 108.288H476.759V112.288H502.295V108.288ZM474.893 109.569L470.381 121.281L474.114 122.719L478.626 111.007L474.893 109.569ZM472.247 120H449.207V124H472.247V120ZM451.04 122.801L480.416 55.6011L476.751 53.9989L447.375 121.199L451.04 122.801ZM478.583 56.8H500.855V52.8H478.583V56.8ZM499.023 55.6011L528.399 122.801L532.064 121.199L502.688 53.9989L499.023 55.6011ZM530.231 120H506.807V124H530.231V120ZM508.674 121.281L504.162 109.569L500.429 111.007L504.941 122.719L508.674 121.281ZM497.921 93.2472L491.393 76.3512L487.662 77.7928L494.19 94.6888L497.921 93.2472ZM487.662 76.3512L481.134 93.2472L484.865 94.6888L491.393 77.7928L487.662 76.3512ZM482.999 95.968H496.055V91.968H482.999V95.968ZM601.811 54.8L603.653 55.5789L604.828 52.8H601.811V54.8ZM573.395 122V124H574.721L575.237 122.779L573.395 122ZM551.123 122L549.281 122.779L549.797 124H551.123V122ZM522.707 54.8V52.8H519.69L520.865 55.5789L522.707 54.8ZM547.091 54.8L548.943 54.044L548.435 52.8H547.091V54.8ZM563.123 94.064L561.272 94.82L563.101 99.3012L564.968 94.8355L563.123 94.064ZM579.539 54.8V52.8H578.208L577.694 54.0285L579.539 54.8ZM599.969 54.0211L571.553 121.221L575.237 122.779L603.653 55.5789L599.969 54.0211ZM573.395 120H551.123V124H573.395V120ZM552.965 121.221L524.549 54.0211L520.865 55.5789L549.281 122.779L552.965 121.221ZM522.707 56.8H547.091V52.8H522.707V56.8ZM545.24 55.556L561.272 94.82L564.975 93.308L548.943 54.044L545.24 55.556ZM564.968 94.8355L581.384 55.5715L577.694 54.0285L561.278 93.2925L564.968 94.8355ZM579.539 56.8H601.811V52.8H579.539V56.8ZM659.938 104.912H661.938V102.912H659.938V104.912ZM659.938 122V124H661.938V122H659.938ZM604.066 122H602.066V124H604.066V122ZM604.066 54.8V52.8H602.066V54.8H604.066ZM658.69 54.8H660.69V52.8H658.69V54.8ZM658.69 71.888V73.888H660.69V71.888H658.69ZM626.338 71.888V69.888H624.338V71.888H626.338ZM626.338 79.76H624.338V81.76H626.338V79.76ZM654.754 79.76H656.754V77.76H654.754V79.76ZM654.754 96.08V98.08H656.754V96.08H654.754ZM626.338 96.08V94.08H624.338V96.08H626.338ZM626.338 104.912H624.338V106.912H626.338V104.912ZM657.938 104.912V122H661.938V104.912H657.938ZM659.938 120H604.066V124H659.938V120ZM606.066 122V54.8H602.066V122H606.066ZM604.066 56.8H658.69V52.8H604.066V56.8ZM656.69 54.8V71.888H660.69V54.8H656.69ZM658.69 69.888H626.338V73.888H658.69V69.888ZM624.338 71.888V79.76H628.338V71.888H624.338ZM626.338 81.76H654.754V77.76H626.338V81.76ZM652.754 79.76V96.08H656.754V79.76H652.754ZM654.754 94.08H626.338V98.08H654.754V94.08ZM624.338 96.08V104.912H628.338V96.08H624.338ZM626.338 106.912H659.938V102.912H626.338V106.912ZM668.659 54.8V52.8H666.659V54.8H668.659ZM691.315 54.8H693.315V52.8H691.315V54.8ZM691.315 104.432H689.315V106.432H691.315V104.432ZM721.651 104.432H723.651V102.432H721.651V104.432ZM721.651 122V124H723.651V122H721.651ZM668.659 122H666.659V124H668.659V122ZM668.659 56.8H691.315V52.8H668.659V56.8ZM689.315 54.8V104.432H693.315V54.8H689.315ZM691.315 106.432H721.651V102.432H691.315V106.432ZM719.651 104.432V122H723.651V104.432H719.651ZM721.651 120H668.659V124H721.651V120ZM670.659 122V54.8H666.659V122H670.659Z" fill="white"/>
<path d="M547.168 29.312L547.488 28.032C547.573 27.7333 547.637 27.328 547.68 26.816C547.808 26.3893 547.915 25.92 548 25.408C548.171 23.872 548.171 22.6133 548 21.632C547.872 20.6933 547.701 19.9467 547.488 19.392C547.189 18.7093 546.869 18.24 546.528 17.984C545.888 17.6427 545.355 18.048 544.928 19.2C544.501 20.3093 544.139 21.7813 543.84 23.616C543.627 25.6213 543.456 27.776 543.328 30.08C543.2 32.512 543.157 34.816 543.2 36.992C543.456 36.7787 543.733 36.4587 544.032 36.032C544.373 35.6907 544.693 35.264 544.992 34.752C545.931 33.088 546.656 31.2747 547.168 29.312ZM548.064 45.056C548.235 45.2267 548.491 45.2693 548.832 45.184C549.045 45.0987 549.237 44.9067 549.408 44.608C549.579 44.3093 549.771 43.9467 549.984 43.52C549.557 43.2213 549.131 42.9867 548.704 42.816C548.277 42.6453 547.979 42.6667 547.808 42.88C547.68 43.0507 547.616 43.2853 547.616 43.584C547.573 43.8827 547.595 44.16 547.68 44.416C547.765 44.7147 547.893 44.928 548.064 45.056ZM555.68 37.632C555.765 39.168 555.573 40.768 555.104 42.432C554.891 43.2853 554.677 43.968 554.464 44.48C554.763 44.48 555.04 44.3093 555.296 43.968C555.723 43.456 556.149 42.88 556.576 42.24C556.96 41.6427 557.323 41.0453 557.664 40.448C557.963 39.8933 558.24 39.36 558.496 38.848C558.709 38.3787 558.88 38.016 559.008 37.76C559.093 37.5467 559.221 37.4827 559.392 37.568H559.52C559.733 37.6533 559.883 37.7813 559.968 37.952C560.011 38.1227 559.989 38.3147 559.904 38.528C558.752 41.1307 557.643 43.1787 556.576 44.672C556.235 45.2267 555.872 45.5893 555.488 45.76C555.104 45.9733 554.72 46.1013 554.336 46.144C553.952 46.144 553.653 46.1013 553.44 46.016L553.056 46.464L552.608 46.912C552.139 47.296 551.648 47.5947 551.136 47.808C550.667 48.0213 550.155 48.1493 549.6 48.192C549.003 48.2347 548.384 48.0853 547.744 47.744C547.403 47.5733 547.125 47.36 546.912 47.104C546.699 46.8907 546.507 46.592 546.336 46.208C546.165 45.8667 546.059 45.4613 546.016 44.992C545.973 44.5653 545.995 44.096 546.08 43.584C546.123 43.072 546.336 42.5387 546.72 41.984C547.189 41.2587 547.744 40.9813 548.384 41.152C549.024 41.3227 549.707 41.664 550.432 42.176L550.688 41.088C550.731 40.7467 550.795 40.448 550.88 40.192C551.093 39.0827 551.2 38.1867 551.2 37.504C551.2 37.248 551.179 36.992 551.136 36.736C551.051 35.7547 550.901 35.008 550.688 34.496C550.389 33.856 550.027 33.472 549.6 33.344C548.917 33.3867 548.32 33.7067 547.808 34.304C547.296 34.8587 546.869 35.4773 546.528 36.16C546.229 36.8427 545.995 37.5253 545.824 38.208C545.653 38.848 545.547 39.2747 545.504 39.488C544.907 41.408 544.715 44.032 544.928 47.36C544.928 47.5307 544.843 47.7013 544.672 47.872C544.501 48 544.288 48.064 544.032 48.064C543.179 48.0213 542.517 47.8293 542.048 47.488C541.579 47.104 541.237 46.7413 541.024 46.4C540.725 45.9307 540.533 45.4187 540.448 44.864C540.192 43.2427 540 42.496 539.872 42.624C539.744 42.752 539.701 42.0053 539.744 40.384C538.763 40.5547 537.845 40.5547 536.992 40.384C536.736 40.3413 536.608 40.0853 536.608 39.616C536.693 39.0187 536.864 38.7627 537.12 38.848C537.461 38.8907 537.803 38.9333 538.144 38.976C538.485 38.9333 538.805 38.8907 539.104 38.848C539.36 38.8053 539.595 38.784 539.808 38.784C539.808 37.888 539.829 37.1413 539.872 36.544V33.344C539.915 31.424 540.021 29.5893 540.192 27.84C540.363 25.9627 540.661 24.1707 541.088 22.464C541.472 20.8427 542.005 19.392 542.688 18.112C543.072 17.2587 543.499 16.6187 543.968 16.192C544.395 15.8507 544.8 15.5947 545.184 15.424C545.568 15.3387 545.909 15.3173 546.208 15.36C546.507 15.4027 546.72 15.488 546.848 15.616C547.787 15.9573 548.533 16.832 549.088 18.24C549.557 19.6053 549.792 21.0347 549.792 22.528C549.749 24.064 549.579 25.6213 549.28 27.2C549.024 28.6933 548.619 30.1013 548.064 31.424C547.851 31.936 547.637 32.448 547.424 32.96C547.68 32.6613 547.936 32.4267 548.192 32.256C549.003 31.6587 550.027 31.424 551.264 31.552C552.459 31.68 553.419 32.2347 554.144 33.216C554.869 34.1973 555.36 35.3707 555.616 36.736C555.659 37.0347 555.68 37.3333 555.68 37.632ZM560.298 43.84C560.383 43.072 560.341 42.5173 560.17 42.176C560.042 41.8773 559.871 41.6853 559.658 41.6C559.573 42.4533 559.53 43.136 559.53 43.648C559.573 44.2027 559.679 44.5013 559.85 44.544C560.021 44.544 560.149 44.4373 560.234 44.224L560.298 43.84ZM566.442 27.84C567.893 27.84 568.895 28.2667 569.45 29.12C570.047 29.9307 570.431 30.784 570.602 31.68C571.114 30.656 571.754 29.76 572.522 28.992C573.333 28.224 574.335 27.84 575.53 27.84C576.81 27.84 577.749 28.1813 578.346 28.864C578.943 29.5467 579.349 30.2933 579.562 31.104C579.775 32.0853 579.839 33.1733 579.754 34.368C579.669 35.5627 579.583 36.7573 579.498 37.952C579.413 39.1467 579.349 40.256 579.306 41.28C579.306 42.2613 579.327 43.072 579.37 43.712C579.413 44.3093 579.498 44.6293 579.626 44.672C580.095 44.2027 580.543 43.6267 580.97 42.944C581.439 42.2613 581.866 41.6 582.25 40.96C582.634 40.2773 582.954 39.6587 583.21 39.104C583.466 38.5493 583.658 38.144 583.786 37.888C583.871 37.6747 584.021 37.6107 584.234 37.696H584.362C584.575 37.7813 584.703 37.9093 584.746 38.08C584.831 38.2507 584.831 38.4427 584.746 38.656C583.722 40.9173 582.762 42.7307 581.866 44.096C581.013 45.4187 580.202 46.4 579.434 47.04C578.709 47.68 578.005 48.0213 577.322 48.064C576.639 48.1067 575.978 47.936 575.338 47.552C574.613 47.1253 574.101 46.3573 573.802 45.248C573.503 44.096 573.311 42.8587 573.226 41.536C573.141 40.1707 573.119 38.8267 573.162 37.504C573.247 36.1387 573.333 35.0293 573.418 34.176C573.546 33.2373 573.567 32.5973 573.482 32.256C573.397 31.872 573.247 31.6587 573.034 31.616C572.735 31.5733 572.415 31.9147 572.074 32.64C571.775 33.3653 571.477 34.24 571.178 35.264C570.922 36.2453 570.687 37.2907 570.474 38.4C570.303 39.4667 570.197 40.3627 570.154 41.088V41.408C570.154 41.4933 570.154 41.6213 570.154 41.792C570.154 41.9627 570.133 42.1547 570.09 42.368C570.09 42.6667 570.047 43.0293 569.962 43.456C569.877 43.84 569.749 44.224 569.578 44.608C569.45 44.9493 569.258 45.248 569.002 45.504C568.746 45.76 568.426 45.9093 568.042 45.952C567.146 46.0373 566.442 45.8667 565.93 45.44C565.461 44.9707 565.098 44.4587 564.842 43.904C564.543 43.264 564.373 42.5387 564.33 41.728C564.159 40.2773 564.095 38.912 564.138 37.632C564.181 36.3093 564.223 35.1573 564.266 34.176C564.394 33.2373 564.415 32.576 564.33 32.192C564.287 31.936 564.223 31.7013 564.138 31.488C564.053 31.232 563.925 30.976 563.754 30.72C563.583 30.5493 563.434 30.5067 563.306 30.592C562.965 30.7627 562.623 31.168 562.282 31.808C561.983 32.448 561.685 33.1947 561.386 34.048C561.087 34.944 560.81 35.8827 560.554 36.864C560.341 37.888 560.149 38.8693 559.978 39.808C560.874 40.064 561.493 40.6187 561.834 41.472C562.218 42.368 562.367 43.3067 562.282 44.288C562.239 45.2693 562.005 46.144 561.578 46.912C561.151 47.68 560.575 48.064 559.85 48.064C559.253 48.064 558.805 47.808 558.506 47.296C558.25 46.8267 558.079 46.2507 557.994 45.568C557.909 44.928 557.866 44.2667 557.866 43.584C557.909 42.9013 557.951 42.368 557.994 41.984C557.653 42.368 557.397 42.8587 557.226 43.456C557.055 44.096 556.927 44.5867 556.842 44.928C556.757 45.2267 556.607 45.2693 556.394 45.056L556.33 44.928C555.903 44.2453 555.797 43.4773 556.01 42.624C556.181 42.0693 556.437 41.5147 556.778 40.96C557.119 40.4053 557.631 40.0213 558.314 39.808C558.783 36.864 559.338 34.5813 559.978 32.96C560.618 31.3813 561.237 30.2293 561.834 29.504C562.559 28.608 563.306 28.096 564.074 27.968C564.714 27.84 565.503 27.7973 566.442 27.84ZM600.279 37.696C600.492 37.7813 600.62 37.9093 600.663 38.08C600.748 38.2507 600.748 38.4427 600.663 38.656C600.193 39.68 599.745 40.6187 599.319 41.472C598.892 42.2827 598.487 43.008 598.103 43.648C597.377 44.7573 596.545 45.696 595.607 46.464C594.796 47.104 593.815 47.616 592.663 48C591.511 48.4267 590.188 48.4053 588.695 47.936C587.884 47.68 587.052 47.168 586.199 46.4C585.388 45.632 584.705 44.672 584.151 43.52C583.596 42.368 583.233 41.0667 583.062 39.616C582.892 38.1227 583.062 36.5227 583.575 34.816C584.044 33.152 584.641 31.872 585.367 30.976C586.135 30.0373 586.881 29.3333 587.607 28.864C588.417 28.352 589.271 28.0533 590.167 27.968C591.233 27.8827 592.129 28.0107 592.855 28.352C593.58 28.6507 594.177 29.0347 594.647 29.504C595.031 29.9307 595.329 30.3787 595.543 30.848C595.756 31.2747 595.863 31.7653 595.863 32.32C595.905 32.8747 595.777 33.5147 595.479 34.24C595.137 35.008 594.647 35.648 594.007 36.16C593.452 36.6293 592.705 37.0133 591.767 37.312C590.828 37.568 589.633 37.5893 588.183 37.376C588.183 37.504 588.161 37.632 588.119 37.76C588.119 37.888 588.119 38.016 588.119 38.144C588.033 39.552 588.076 40.832 588.247 41.984C588.417 42.9653 588.737 43.904 589.207 44.8C589.676 45.6533 590.423 46.1227 591.447 46.208C592.172 46.2933 592.855 46.1653 593.495 45.824C594.177 45.4827 594.775 45.0773 595.287 44.608C595.884 44.096 596.46 43.4987 597.015 42.816C597.655 41.8347 598.209 40.8747 598.679 39.936C599.191 38.9547 599.532 38.272 599.703 37.888C599.788 37.6747 599.937 37.6107 600.151 37.696H600.279ZM594.135 30.592C593.836 30.2933 593.431 30.208 592.919 30.336C592.407 30.464 591.873 30.784 591.319 31.296C590.764 31.7653 590.231 32.4053 589.719 33.216C589.207 33.984 588.801 34.88 588.503 35.904C588.887 35.9893 589.313 36.032 589.783 36.032C590.252 36.032 590.721 35.968 591.191 35.84C591.703 35.712 592.172 35.5413 592.599 35.328C593.068 35.072 593.473 34.7093 593.815 34.24C594.199 33.6853 594.433 33.1947 594.519 32.768C594.647 32.2987 594.668 31.8933 594.583 31.552C594.497 31.168 594.348 30.848 594.135 30.592ZM610.199 35.136C609.687 35.136 609.239 35.008 608.855 34.752C608.599 34.5813 608.556 34.368 608.727 34.112C609.111 33.6 609.345 33.152 609.431 32.768C609.559 32.384 609.623 32.064 609.623 31.808C609.623 31.5093 609.559 31.232 609.431 30.976C609.004 30.72 608.513 30.6987 607.959 30.912C607.404 31.0827 606.849 31.4667 606.295 32.064C605.783 32.6613 605.313 33.472 604.887 34.496C604.503 35.52 604.247 36.736 604.119 38.144C604.076 39.552 604.14 40.832 604.311 41.984C604.481 42.9653 604.801 43.904 605.271 44.8C605.74 45.6533 606.465 46.1227 607.447 46.208C608.172 46.2933 608.855 46.1653 609.495 45.824C610.177 45.4827 610.775 45.0773 611.287 44.608C611.884 44.096 612.46 43.4987 613.015 42.816C613.697 41.8347 614.273 40.8747 614.743 39.936C615.212 38.9547 615.532 38.272 615.703 37.888C615.873 37.7173 616.023 37.6533 616.151 37.696H616.279C616.492 37.7813 616.62 37.9093 616.663 38.08C616.748 38.2507 616.748 38.4427 616.663 38.656C616.193 39.68 615.745 40.6187 615.319 41.472C614.892 42.2827 614.487 43.008 614.103 43.648C613.42 44.7573 612.609 45.696 611.671 46.464C610.86 47.104 609.857 47.616 608.663 48C607.511 48.4267 606.188 48.4053 604.695 47.936C603.884 47.68 603.073 47.168 602.263 46.4C601.452 45.632 600.769 44.672 600.215 43.52C599.66 42.368 599.297 41.0667 599.127 39.616C598.956 38.1227 599.105 36.5227 599.575 34.816C600.044 33.152 600.641 31.872 601.367 30.976C602.135 30.0373 602.881 29.3333 603.607 28.864C604.417 28.352 605.271 28.0533 606.167 27.968C607.276 27.8827 608.172 28.0107 608.855 28.352C609.58 28.6507 610.177 29.0347 610.647 29.504C611.031 29.9307 611.329 30.3787 611.543 30.848C611.756 31.2747 611.863 31.7653 611.863 32.32C611.905 32.8747 611.777 33.5147 611.479 34.24C611.18 34.8373 610.753 35.136 610.199 35.136ZM629.655 42.368C629.655 42.6667 629.612 43.0293 629.527 43.456C629.441 43.84 629.313 44.224 629.143 44.608C629.015 44.9493 628.823 45.248 628.567 45.504C628.311 45.76 627.991 45.9093 627.607 45.952C626.711 46.0373 626.007 45.8667 625.495 45.44C625.025 44.9707 624.663 44.4587 624.407 43.904C624.108 43.264 623.937 42.5387 623.895 41.728C623.724 40.2773 623.66 38.912 623.703 37.632C623.745 36.3093 623.788 35.1573 623.831 34.176C623.959 33.2373 623.98 32.5973 623.895 32.256C623.809 31.872 623.66 31.6587 623.447 31.616C623.148 31.5733 622.849 31.8933 622.551 32.576C622.252 33.2587 621.953 34.0907 621.655 35.072C621.399 36.0533 621.164 37.0773 620.951 38.144C620.78 39.2107 620.673 40.128 620.631 40.896C620.545 42.2187 620.481 43.4987 620.439 44.736C620.439 45.9307 620.439 46.9547 620.439 47.808C620.439 48.3627 620.161 48.64 619.607 48.64C617.943 48.512 616.791 47.6587 616.151 46.08C615.511 44.5013 615.169 42.432 615.127 39.872C615.041 38.4213 615.02 37.0133 615.062 35.648C615.062 34.24 615.105 33.1093 615.191 32.256C615.319 31.1467 615.788 30.2293 616.599 29.504C617.068 29.12 617.601 28.7573 618.199 28.416C618.839 28.032 619.692 27.8187 620.759 27.776C621.1 27.776 621.271 27.9467 621.271 28.288C621.228 28.7573 621.164 29.8453 621.079 31.552C621.591 30.5707 622.231 29.7173 622.999 28.992C623.809 28.224 624.812 27.84 626.007 27.84C627.457 27.84 628.46 28.2667 629.015 29.12C629.612 29.9307 629.996 30.784 630.167 31.68C630.679 30.656 631.319 29.76 632.087 28.992C632.897 28.224 633.9 27.84 635.095 27.84C636.375 27.84 637.313 28.1813 637.911 28.864C638.508 29.5467 638.913 30.2933 639.127 31.104C639.34 32.0853 639.404 33.1733 639.319 34.368C639.233 35.5627 639.148 36.7573 639.063 37.952C638.977 39.1467 638.913 40.256 638.871 41.28C638.871 42.2613 638.892 43.072 638.935 43.712C638.977 44.3093 639.063 44.6293 639.191 44.672C639.66 44.2027 640.108 43.6267 640.535 42.944C641.004 42.2613 641.431 41.6 641.815 40.96C642.199 40.2773 642.519 39.6587 642.775 39.104C643.031 38.5493 643.223 38.144 643.351 37.888C643.436 37.6747 643.585 37.6107 643.799 37.696H643.927C644.14 37.7813 644.268 37.9093 644.311 38.08C644.396 38.2507 644.396 38.4427 644.311 38.656C643.287 40.9173 642.327 42.7307 641.431 44.096C640.577 45.4187 639.767 46.4 638.999 47.04C638.273 47.68 637.569 48.0213 636.887 48.064C636.204 48.1067 635.543 47.936 634.903 47.552C634.177 47.1253 633.665 46.3573 633.367 45.248C633.068 44.096 632.876 42.8587 632.791 41.536C632.705 40.1707 632.684 38.8267 632.727 37.504C632.812 36.1387 632.897 35.0293 632.983 34.176C633.111 33.2373 633.132 32.5973 633.047 32.256C632.961 31.872 632.812 31.6587 632.599 31.616C632.3 31.5733 631.98 31.9147 631.639 32.64C631.34 33.3653 631.041 34.24 630.743 35.264C630.487 36.2453 630.252 37.2907 630.039 38.4C629.868 39.4667 629.761 40.3627 629.719 41.088V41.408C629.719 41.4933 629.719 41.6213 629.719 41.792C629.719 41.9627 629.697 42.1547 629.655 42.368ZM659.904 37.696C660.117 37.7813 660.245 37.9093 660.288 38.08C660.373 38.2507 660.373 38.4427 660.288 38.656C659.818 39.68 659.37 40.6187 658.944 41.472C658.517 42.2827 658.112 43.008 657.728 43.648C657.002 44.7573 656.17 45.696 655.232 46.464C654.421 47.104 653.44 47.616 652.288 48C651.136 48.4267 649.813 48.4053 648.32 47.936C647.509 47.68 646.677 47.168 645.824 46.4C645.013 45.632 644.33 44.672 643.776 43.52C643.221 42.368 642.858 41.0667 642.688 39.616C642.517 38.1227 642.688 36.5227 643.2 34.816C643.669 33.152 644.266 31.872 644.992 30.976C645.76 30.0373 646.506 29.3333 647.232 28.864C648.042 28.352 648.896 28.0533 649.792 27.968C650.858 27.8827 651.754 28.0107 652.48 28.352C653.205 28.6507 653.802 29.0347 654.272 29.504C654.656 29.9307 654.954 30.3787 655.168 30.848C655.381 31.2747 655.488 31.7653 655.488 32.32C655.53 32.8747 655.402 33.5147 655.104 34.24C654.762 35.008 654.272 35.648 653.632 36.16C653.077 36.6293 652.33 37.0133 651.392 37.312C650.453 37.568 649.258 37.5893 647.808 37.376C647.808 37.504 647.786 37.632 647.744 37.76C647.744 37.888 647.744 38.016 647.744 38.144C647.658 39.552 647.701 40.832 647.872 41.984C648.042 42.9653 648.362 43.904 648.832 44.8C649.301 45.6533 650.048 46.1227 651.072 46.208C651.797 46.2933 652.48 46.1653 653.12 45.824C653.802 45.4827 654.4 45.0773 654.912 44.608C655.509 44.096 656.085 43.4987 656.64 42.816C657.28 41.8347 657.834 40.8747 658.304 39.936C658.816 38.9547 659.157 38.272 659.328 37.888C659.413 37.6747 659.562 37.6107 659.776 37.696H659.904ZM653.76 30.592C653.461 30.2933 653.056 30.208 652.544 30.336C652.032 30.464 651.498 30.784 650.944 31.296C650.389 31.7653 649.856 32.4053 649.344 33.216C648.832 33.984 648.426 34.88 648.128 35.904C648.512 35.9893 648.938 36.032 649.408 36.032C649.877 36.032 650.346 35.968 650.816 35.84C651.328 35.712 651.797 35.5413 652.224 35.328C652.693 35.072 653.098 34.7093 653.44 34.24C653.824 33.6853 654.058 33.1947 654.144 32.768C654.272 32.2987 654.293 31.8933 654.208 31.552C654.122 31.168 653.973 30.848 653.76 30.592ZM685.824 35.136C685.312 35.136 684.864 35.008 684.48 34.752C684.224 34.5813 684.181 34.368 684.352 34.112C684.736 33.6 684.97 33.152 685.056 32.768C685.184 32.384 685.248 32.064 685.248 31.808C685.248 31.5093 685.184 31.232 685.056 30.976C684.629 30.72 684.138 30.6987 683.584 30.912C683.029 31.0827 682.474 31.4667 681.92 32.064C681.408 32.6613 680.938 33.472 680.512 34.496C680.128 35.52 679.872 36.736 679.744 38.144C679.701 39.552 679.765 40.832 679.936 41.984C680.106 42.9653 680.426 43.904 680.896 44.8C681.365 45.6533 682.09 46.1227 683.072 46.208C683.797 46.2933 684.48 46.1653 685.12 45.824C685.802 45.4827 686.4 45.0773 686.912 44.608C687.509 44.096 688.085 43.4987 688.64 42.816C689.322 41.8347 689.898 40.8747 690.368 39.936C690.837 38.9547 691.157 38.272 691.328 37.888C691.498 37.7173 691.648 37.6533 691.776 37.696H691.904C692.117 37.7813 692.245 37.9093 692.288 38.08C692.373 38.2507 692.373 38.4427 692.288 38.656C691.818 39.68 691.37 40.6187 690.944 41.472C690.517 42.2827 690.112 43.008 689.728 43.648C689.045 44.7573 688.234 45.696 687.296 46.464C686.485 47.104 685.482 47.616 684.288 48C683.136 48.4267 681.813 48.4053 680.32 47.936C679.509 47.68 678.698 47.168 677.888 46.4C677.077 45.632 676.394 44.672 675.84 43.52C675.285 42.368 674.922 41.0667 674.752 39.616C674.581 38.1227 674.73 36.5227 675.2 34.816C675.669 33.152 676.266 31.872 676.992 30.976C677.76 30.0373 678.506 29.3333 679.232 28.864C680.042 28.352 680.896 28.0533 681.792 27.968C682.901 27.8827 683.797 28.0107 684.48 28.352C685.205 28.6507 685.802 29.0347 686.272 29.504C686.656 29.9307 686.954 30.3787 687.168 30.848C687.381 31.2747 687.488 31.7653 687.488 32.32C687.53 32.8747 687.402 33.5147 687.104 34.24C686.805 34.8373 686.378 35.136 685.824 35.136Z" fill="#FFC700"/>
</svg>
